<?xml version="1.0" encoding="UTF-8"?>
<svg version="1.1" xmlns="http://www.w3.org/2000/svg" width="512" height="512">
<path d="M0 0 C4.55555556 0.55555556 4.55555556 0.55555556 6 2 C6.03808244 3.85757666 6.07236205 5.71532303 6.08569336 7.57324219 C6.24581253 16.94966194 8.03743831 22.56587373 14 30 C15.10408203 31.53527344 15.10408203 31.53527344 16.23046875 33.1015625 C33.24055006 56.620279 56.19503278 72.0800065 84.78125 77.75 C99.05044123 79.94526019 121.84590581 82.19397202 135 75 C137.9170392 72.35750016 140.53773324 69.43327018 143.18359375 66.5234375 C147.36065195 62.12032674 147.36065195 62.12032674 150.78125 61.4765625 C153 62 153 62 155 64 C155.421875 66.37109375 155.421875 66.37109375 155 69 C152.953125 70.97265625 152.953125 70.97265625 150.25 73.0625 C142.75273217 80.12498992 142.21939472 89.16796274 141 99 C140.85175781 100.03640625 140.70351563 101.0728125 140.55078125 102.140625 C140.24022566 104.77026451 140.08858572 107.35350164 140 110 C139.9484375 111.24394531 139.896875 112.48789063 139.84375 113.76953125 C139.0930811 140.2547497 146.33565307 164.21501456 163 185 C163.50273437 185.65742188 164.00546875 186.31484375 164.5234375 186.9921875 C168.12888375 191.51462586 172.42954896 195.10444184 176.984375 198.6484375 C178.98742782 200.21040356 180.93802985 201.84215387 182.828125 203.5390625 C192.25088987 211.30914348 201.12250069 211.19349191 212.9597168 210.82397461 C215 211 215 211 217 213 C216.44444444 217.55555556 216.44444444 217.55555556 215 219 C214.10539062 218.98839844 213.21078125 218.97679687 212.2890625 218.96484375 C190.52207195 218.80240352 169.71868363 235.91503421 154.58203125 250.34765625 C137.84456132 267.54091205 131.44116837 286.21668733 131.71484375 309.90625 C131.95428005 317.5874628 133.38216032 324.73228505 135.48388672 332.1015625 C135.94510086 333.79806256 136.29489782 335.523944 136.62890625 337.25 C138.56497657 345.56957073 143.69004296 350.2939728 149.8684082 355.83862305 C150.52542725 356.43715088 151.18244629 357.03567871 151.859375 357.65234375 C152.46233398 358.17820068 153.06529297 358.70405762 153.68652344 359.24584961 C155.46238187 361.61751184 155.38483919 363.10639528 155 366 C153 368 153 368 150.74609375 368.51953125 C146.58761845 367.73279268 144.70678205 364.75486718 142.0625 361.6875 C135.75641315 354.8719774 130.33564022 352.81229222 121 352 C120.2575 351.87753906 119.515 351.75507813 118.75 351.62890625 C93.83713764 347.68761357 67.81031291 353.84034862 47.08203125 367.9921875 C35.57820615 376.35589993 25.61907895 385.65747779 17 397 C15.75283203 398.49466797 15.75283203 398.49466797 14.48046875 400.01953125 C9.09677875 406.74338971 6.99738212 412.1023252 7.24804688 420.61987305 C7.32974657 424.16004509 7.27560974 425.66231118 4.98828125 428.46484375 C4.33214844 428.97144531 3.67601562 429.47804688 3 430 C1.35 429.34 -0.3 428.68 -2 428 C-1.99097656 426.68128906 -1.98195312 425.36257813 -1.97265625 424.00390625 C-2.17949698 402.7649432 -10.10218132 384.66344967 -24.71875 369.08984375 C-42.83398101 352.49455507 -64.31965478 348.93090575 -88.10058594 349.84033203 C-95.54768344 350.25043659 -102.72343359 351.39243284 -110 353 C-111.59255615 353.34659668 -111.59255615 353.34659668 -113.21728516 353.70019531 C-116.71910843 354.48628864 -120.20331132 355.32679492 -123.6875 356.1875 C-124.78690918 356.44217041 -125.88631836 356.69684082 -127.01904297 356.95922852 C-133.82145196 358.74260228 -137.73734139 360.87965343 -142.19458008 366.3840332 C-144 368 -144 368 -146.59643555 368.36010742 C-149 368 -149 368 -151 366 C-151.515625 363.734375 -151.515625 363.734375 -151 361 C-148.96490505 358.94137794 -146.94654754 357.11558501 -144.75 355.25 C-136.98459002 348.06785351 -135.28716365 341.22492038 -134 331 C-133.78128254 329.53105066 -133.56123465 328.06229879 -133.33984375 326.59375 C-129.93312642 302.53397717 -132.205896 277.44809254 -146.59375 257.17578125 C-158.3115248 241.71060119 -176.9138151 225.71663509 -196 220 C-198.62805842 219.71132208 -201.17910831 219.49595962 -203.8125 219.375 C-204.85180664 219.31699219 -204.85180664 219.31699219 -205.91210938 219.2578125 C-207.60767015 219.16426432 -209.30379712 219.08107636 -211 219 C-212.125 216.6875 -212.125 216.6875 -213 214 C-212.34 213.01 -211.68 212.02 -211 211 C-208.99145508 210.71044922 -208.99145508 210.71044922 -206.51953125 210.8046875 C-193.08884648 210.97597601 -184.58335936 209.34617437 -174 201 C-172.44152344 199.80117188 -172.44152344 199.80117188 -170.8515625 198.578125 C-168.17774682 196.44193982 -165.58359355 194.24375478 -163 192 C-162.01902344 191.21882812 -161.03804687 190.43765625 -160.02734375 189.6328125 C-144.06934065 176.33065705 -134.15280855 154.34404081 -132 134 C-130.24913702 105.28688298 -130.24913702 105.28688298 -140.36401367 79.41674805 C-142.46789067 77.31882074 -144.66494767 75.3415 -146.88085938 73.36328125 C-150.89089209 69.61275005 -150.89089209 69.61275005 -151.48828125 66.2578125 C-151 64 -151 64 -149 62 C-146.04846502 61.59757244 -144.59026986 61.56181698 -142.16650391 63.36108398 C-141.60882324 63.98313721 -141.05114258 64.60519043 -140.4765625 65.24609375 C-139.8475 65.91833984 -139.2184375 66.59058594 -138.5703125 67.28320312 C-137.27888777 68.71336525 -135.9898017 70.14564283 -134.703125 71.58007812 C-134.07148438 72.25361328 -133.43984375 72.92714844 -132.7890625 73.62109375 C-132.22912598 74.2442749 -131.66918945 74.86745605 -131.09228516 75.50952148 C-121.07610529 82.6447348 -92.97634253 78.94920659 -80.8125 77.31640625 C-76.11586876 76.51518768 -71.55398535 75.39453199 -67 74 C-65.94159912 73.67854004 -65.94159912 73.67854004 -64.86181641 73.35058594 C-39.70036952 65.40121182 -20.43041523 48.80715734 -6 27 C-5.42378906 26.24847656 -4.84757813 25.49695313 -4.25390625 24.72265625 C-2.32414129 20.53248124 -2.50586932 16.37371052 -2.4375 11.8125 C-2.40313306 10.00632625 -2.36056745 8.20028412 -2.30859375 6.39453125 C-2.29626709 5.59893799 -2.28394043 4.80334473 -2.27124023 3.98364258 C-2 2 -2 2 0 0 Z M6 36 C5.82141627 43.20380268 5.69947014 50.4070276 5.61547852 57.61254883 C5.58043839 60.05970592 5.53279069 62.50671819 5.47192383 64.95336914 C5.38628369 68.48620463 5.34714486 72.01709132 5.31640625 75.55078125 C5.28027725 76.63144363 5.24414825 77.71210602 5.20692444 78.82551575 C5.20059834 91.27208001 12.92604736 99.68111391 21.171875 108.26953125 C34.11643111 120.76710683 50.1699687 126.58859476 68 127 C69.28293945 127.0712207 70.56587891 127.14244141 71.88769531 127.21582031 C82.26230212 127.26941423 88.24329853 124.19194616 95.6328125 116.96484375 C98.87059645 113.68778558 102.00099821 110.32263433 105.125 106.9375 C106.77359004 105.21709822 108.42591122 103.50026373 110.08203125 101.78710938 C117.40345862 95.5072423 117.40345862 95.5072423 122 88 C121.28682617 88.01571045 120.57365234 88.0314209 119.83886719 88.04760742 C86.18926276 88.68765206 53.4531818 84.26452151 27.99609375 60.09765625 C26.66318396 58.73262815 25.33143194 57.36646962 24 56 C23.34 56 22.68 56 22 56 C21.64035156 55.16082031 21.64035156 55.16082031 21.2734375 54.3046875 C19.72649642 51.50500886 17.81197519 49.45728916 15.625 47.125 C12.34910969 43.56470764 9.57589008 40.07849263 7 36 C6.67 36 6.34 36 6 36 Z M-3 39 C-4.26040875 40.49504331 -5.48252568 42.02242805 -6.6875 43.5625 C-7.41710937 44.4803125 -8.14671875 45.398125 -8.8984375 46.34375 C-10.09763864 47.85946891 -11.29301149 49.37827938 -12.4765625 50.90625 C-30.24082311 72.92977777 -59.84853546 83.51254287 -87 87 C-89.48656358 87.14024545 -91.97537819 87.24409812 -94.46484375 87.31640625 C-95.14301651 87.33718735 -95.82118927 87.35796844 -96.51991272 87.37937927 C-98.65901831 87.44409309 -100.79823296 87.5033909 -102.9375 87.5625 C-104.39909924 87.60575984 -105.86068797 87.64937634 -107.32226562 87.69335938 C-110.8813984 87.79969251 -114.44064997 87.9011733 -118 88 C-113.84244679 92.95258365 -109.52410966 97.6356063 -104.95703125 102.2109375 C-103.98161629 103.19134506 -103.98161629 103.19134506 -102.98649597 104.19155884 C-101.6238956 105.55918461 -100.25997166 106.92549285 -98.89477539 108.29052734 C-96.80260808 110.38490236 -94.71859424 112.48717578 -92.63476562 114.58984375 C-91.30517667 115.92236327 -89.97511533 117.25441166 -88.64453125 118.5859375 C-88.02262405 119.21503021 -87.40071686 119.84412292 -86.75996399 120.49227905 C-85.88841927 121.35920883 -85.88841927 121.35920883 -84.99926758 122.24365234 C-84.49107986 122.75326508 -83.98289215 123.26287781 -83.45930481 123.78793335 C-77.16425338 129.01646535 -62.64062259 126.44751173 -55 126 C-40.59969484 124.33592866 -27.89217638 118.54120876 -17 109 C-16.39671875 108.47921875 -15.7934375 107.9584375 -15.171875 107.421875 C-13.32159476 105.70494829 -11.68287609 103.8817395 -10 102 C-9.31752197 101.31542725 -8.63504395 100.63085449 -7.93188477 99.92553711 C0.87074194 89.4263857 -1.12310211 76.69430919 -1.5 63.75 C-1.5401839 61.34771568 -1.57667597 58.94536661 -1.609375 56.54296875 C-1.69696235 50.69388553 -1.83034728 44.84724827 -2 39 C-2.33 39 -2.66 39 -3 39 Z M128.53759766 94.15844727 C127.80658844 94.85079971 127.07557922 95.54315216 126.32241821 96.25648499 C122.95903259 99.48240213 119.61498991 102.72759531 116.28125 105.98413086 C114.52564082 107.68826584 112.75850607 109.38061549 110.97949219 111.06030273 C97.54257501 123.17380058 97.54257501 123.17380058 92.04394531 139.75415039 C92.02944336 140.82528076 92.01494141 141.89641113 92 143 C91.92104492 143.8861499 91.84208984 144.7722998 91.76074219 145.68530273 C91.57496297 147.95409644 91.53058418 150.16228511 91.5625 152.4375 C91.56934814 153.22825928 91.57619629 154.01901855 91.58325195 154.83374023 C92.0561293 172.53210474 98.69307385 187.71109295 111.234375 200.23046875 C113.44166148 202.25888891 115.6174166 204.17913326 118 206 C118.51856567 206.41607513 119.03713135 206.83215027 119.57141113 207.26083374 C125.55637433 211.58329611 130.72332297 211.66158192 137.9375 211.48828125 C139.05817871 211.48120651 140.17885742 211.47413177 141.33349609 211.46684265 C144.88969536 211.43900168 148.44428191 211.37627862 152 211.3125 C154.42055007 211.287404 156.84112499 211.26459312 159.26171875 211.24414062 C165.17502327 211.18920877 171.08739638 211.10568491 177 211 C174.43035903 208.411644 171.83152439 205.93673279 169.0625 203.5625 C165.90877609 200.81458615 162.88923909 198.03017758 160 195 C159.33226562 194.31550781 158.66453125 193.63101563 157.9765625 192.92578125 C138.17606497 171.94266015 130.29476945 144.15473437 130.796875 115.80859375 C131.0675986 107.50466789 132.03584354 99.24698116 133 91 C131.11780283 91 129.82766461 92.93622301 128.53759766 94.15844727 Z M-125 95 C-124.855625 95.89976562 -124.71125 96.79953125 -124.5625 97.7265625 C-120.263931 127.51803377 -123.08899666 157.47153041 -141.5 182.375 C-142.98470952 184.26213079 -144.48348685 186.13833063 -146 188 C-146.86238281 189.09248047 -146.86238281 189.09248047 -147.7421875 190.20703125 C-153.53414127 197.23220006 -160.77079241 202.77972103 -168.1875 208 C-169.5796875 208.99 -169.5796875 208.99 -171 210 C-171 210.33 -171 210.66 -171 211 C-164.09947877 211.20439466 -157.19974944 211.34357987 -150.296875 211.43945312 C-147.95347934 211.47945602 -145.61028043 211.53387837 -143.26757812 211.60351562 C-126.05478465 212.53993113 -126.05478465 212.53993113 -111.17749023 205.0925293 C-110.45891846 204.40199463 -109.74034668 203.71145996 -109 203 C-107.44160609 201.7656316 -105.8797066 200.53566002 -104.3125 199.3125 C-92.8498029 188.70429487 -85.96112805 174.6126979 -84.77734375 159.078125 C-84.59519834 152.71095504 -85.1405779 146.47846509 -86.0625 140.1875 C-86.14653076 139.49454834 -86.23056152 138.80159668 -86.31713867 138.08764648 C-87.37312801 131.79304813 -90.59113464 128.43018784 -95 124 C-96.0912847 122.88473337 -97.18215014 121.7690564 -98.27270508 120.65307617 C-101.44966086 117.41736131 -104.6517053 114.20767054 -107.86328125 111.00634766 C-109.89441285 108.98063898 -111.92006599 106.94955941 -113.9453125 104.91796875 C-115.23144976 103.63249118 -116.51789659 102.34732325 -117.8046875 101.0625 C-118.41190643 100.45325684 -119.01912537 99.84401367 -119.64474487 99.21630859 C-121.95271966 96.34534166 -121.95271966 96.34534166 -125 95 Z M6 105 C5.84719499 111.26188699 5.74251298 117.52328902 5.67041016 123.78662109 C5.64033654 125.91473355 5.59946589 128.04272307 5.54736328 130.17041016 C5.47413268 133.23891604 5.44044901 136.3057762 5.4140625 139.375 C5.38309479 140.31802979 5.35212708 141.26105957 5.32022095 142.23266602 C5.31620794 150.20517678 8.29685351 154.1978502 13.71109009 159.75683594 C20.82020767 166.6546269 29.09720302 168.39975076 38.7265625 168.82421875 C43.71090367 167.5692116 46.39511284 164.55705436 50 161 C50.99296059 160.03242892 51.98596485 159.06490266 52.97900391 158.09741211 C55.76697815 155.3660118 58.53001652 152.61067162 61.28466797 149.84570312 C63.02065963 148.10427568 64.76203142 146.36835324 66.50390625 144.6328125 C67.60709226 143.52896698 68.70996873 142.42481199 69.8125 141.3203125 C70.33424805 140.80058868 70.85599609 140.28086487 71.39355469 139.74539185 C73.89173258 137.71793134 73.89173258 137.71793134 75 135 C73.34677734 134.96132812 73.34677734 134.96132812 71.66015625 134.921875 C48.7250709 134.15975114 28.80119702 128.24300363 12.4375 111.35546875 C11.06366194 109.79763452 9.71104245 108.22055154 8.390625 106.6171875 C7.93171875 106.08351563 7.4728125 105.54984375 7 105 C6.67 105 6.34 105 6 105 Z M-3 107 C-4.59481377 108.65568453 -6.17529972 110.32517427 -7.75 112 C-24.79048817 129.44554434 -47.50188732 134.10453973 -71 135 C-65.63426562 141.44455928 -59.96665785 147.59575456 -54.15307617 153.63647461 C-53.0089965 154.83753847 -51.87769231 156.05090197 -50.75952148 157.27612305 C-44.20570812 164.72610599 -44.20570812 164.72610599 -35.48193359 168.83447266 C-24.34902447 168.97864438 -14.95332925 165.69743876 -6.83984375 158.09765625 C-1.85824049 152.41799393 -1.58601256 148.20730672 -1.70703125 140.88671875 C-1.71127609 139.91716751 -1.71552094 138.94761627 -1.71989441 137.94868469 C-1.736646 134.861337 -1.77429211 131.77464938 -1.8125 128.6875 C-1.82755137 126.59050424 -1.84123898 124.49349822 -1.85351562 122.39648438 C-1.88653808 117.26406977 -1.93829653 112.13214669 -2 107 C-2.33 107 -2.66 107 -3 107 Z M79.98071289 142.73120117 C79.02951317 143.62925728 79.02951317 143.62925728 78.05909729 144.54545593 C75.14567035 147.33470689 72.24908544 150.14069995 69.36254883 152.95776367 C67.84169714 154.43212292 66.31021529 155.89560329 64.76782227 157.34741211 C53.11105664 167.79551223 53.11105664 167.79551223 48.81787109 182.22851562 C49.35812056 190.44957718 50.93103187 196.43074716 56 203 C56.71518799 204.04486572 56.71518799 204.04486572 57.44482422 205.11083984 C61.0841249 209.363117 64.41267127 211.16855187 69.94995117 211.64501953 C75.99302658 211.88812405 82.02077236 211.69807411 88.0625 211.5 C90.18938627 211.45983034 92.31634531 211.42333571 94.44335938 211.390625 C99.6307151 211.30288523 104.81455246 211.16507087 110 211 C109.21536377 210.2155249 108.43072754 209.4310498 107.62231445 208.62280273 C94.62433606 195.62240408 84.63292462 180.08036871 83.88647461 161.11572266 C83.89171143 160.1416748 83.89694824 159.16762695 83.90234375 158.1640625 C83.90556641 157.10058594 83.90878906 156.03710938 83.91210938 154.94140625 C83.92467773 153.29978516 83.92467773 153.29978516 83.9375 151.625 C83.94201172 150.50738281 83.94652344 149.38976562 83.95117188 148.23828125 C83.96290756 145.49213196 83.97932637 142.74609414 84 140 C82.22794448 140 81.21750703 141.56275159 79.98071289 142.73120117 Z M-77 143 C-76.94779297 144.92199219 -76.94779297 144.92199219 -76.89453125 146.8828125 C-76.50002821 167.53314419 -79.9718726 184.99298316 -94 201 C-96.6368574 203.55606233 -99.32396161 205.98599497 -102.12890625 208.35546875 C-102.74636719 208.89816406 -103.36382812 209.44085938 -104 210 C-104 210.33 -104 210.66 -104 211 C-98.0227332 211.14897329 -92.04656058 211.25751112 -86.06787109 211.32958984 C-84.03675498 211.35965411 -82.00576753 211.40051783 -79.97509766 211.45263672 C-77.04557471 211.52591071 -74.11777615 211.55955976 -71.1875 211.5859375 C-70.28821777 211.61690521 -69.38893555 211.64787292 -68.46240234 211.67977905 C-60.65202069 211.68389344 -56.64909057 208.55482696 -51.21020508 203.25643921 C-46.25260066 198.14830628 -43.92395871 192.03126137 -43.6875 184.9375 C-44.39868338 175.97658944 -46.32677359 171.77519671 -52.72265625 165.65625 C-53.38333603 165.00168823 -54.04401581 164.34712646 -54.72471619 163.67272949 C-56.82360098 161.6006432 -58.9427141 159.55067553 -61.0625 157.5 C-62.49155331 156.0924837 -63.91930251 154.68364203 -65.34570312 153.2734375 C-70.73438416 146.95338074 -70.73438416 146.95338074 -77 143 Z M-5.0625 167.75 C-12.38095025 173.35562147 -20.03497875 175.1960628 -29 177 C-23.90160256 183.16373421 -18.35339242 188.79597701 -12.6875 194.4375 C-11.76904297 195.35982422 -10.85058594 196.28214844 -9.90429688 197.23242188 C-9.03224609 198.10318359 -8.16019531 198.97394531 -7.26171875 199.87109375 C-6.46725342 200.66443115 -5.67278809 201.45776855 -4.85424805 202.27514648 C-3.30004467 204.11351632 -3.30004467 204.11351632 -2 204 C-2 191.46 -2 178.92 -2 166 C-3.32372942 165.89217043 -3.32372942 165.89217043 -5.0625 167.75 Z M6 166 C6 178.54 6 191.08 6 204 C10.20646466 200.39445886 14.17023873 196.95709997 18.05859375 193.07421875 C18.93837891 192.19572266 19.81816406 191.31722656 20.72460938 190.41210938 C21.61986328 189.51298828 22.51511719 188.61386719 23.4375 187.6875 C24.35982422 186.76904297 25.28214844 185.85058594 26.23242188 184.90429688 C27.10318359 184.03224609 27.97394531 183.16019531 28.87109375 182.26171875 C29.66443115 181.46725342 30.45776855 180.67278809 31.27514648 179.85424805 C33.11351632 178.30004467 33.11351632 178.30004467 33 177 C32.16597656 176.84144531 31.33195312 176.68289062 30.47265625 176.51953125 C23.15346616 175.00203594 17.28258943 173.02478385 11 169 C9.35 168.01 7.7 167.02 6 166 Z M40 183 C36.15162167 186.8237384 32.30647906 190.65068971 28.46435547 194.48071289 C27.15568002 195.78434621 25.84611032 197.08708243 24.53564453 198.38891602 C22.65684348 200.25564616 20.78123696 202.12553368 18.90625 203.99609375 C18.31565796 204.58152451 17.72506592 205.16695526 17.11657715 205.77012634 C15.72527666 207.16123243 14.35971469 208.57800523 13 210 C13 210.33 13 210.66 13 211 C25.21 211 37.42 211 50 211 C48.96441358 208.92882716 47.92067827 206.85966156 46.78125 204.84375 C43.64425918 199.10535216 42.19460036 193.95009878 41.359375 187.46875 C41.1322644 185.0031073 41.1322644 185.0031073 40 183 Z M-35 185 C-35.15855469 185.83402344 -35.31710938 186.66804687 -35.48046875 187.52734375 C-37.40862504 196.82723568 -40.33152729 203.44203639 -46 211 C-33.79 211 -21.58 211 -9 211 C-12.53833254 206.87194537 -15.89872087 202.97413195 -19.70703125 199.16015625 C-20.54041016 198.32548828 -21.37378906 197.49082031 -22.23242188 196.63085938 C-23.08384766 195.78330078 -23.93527344 194.93574219 -24.8125 194.0625 C-25.68326172 193.18787109 -26.55402344 192.31324219 -27.45117188 191.41210938 C-28.27810547 190.58646484 -29.10503906 189.76082031 -29.95703125 188.91015625 C-30.70960205 188.15871338 -31.46217285 187.40727051 -32.23754883 186.63305664 C-33.72179853 184.88672211 -33.72179853 184.88672211 -35 185 Z M-176 219 C-173.15736698 221.98595461 -169.93211006 223.98606166 -166.4375 226.125 C-160.0112326 230.16969518 -154.38808713 234.62106073 -149 240 C-148.23042969 240.75796875 -147.46085937 241.5159375 -146.66796875 242.296875 C-134.2606676 255.23259613 -126.07838524 273.21226135 -124 291 C-123.89042969 291.90105469 -123.78085938 292.80210937 -123.66796875 293.73046875 C-122.568683 304.12238333 -122.96550365 314.30758733 -124 324.6875 C-124.09539062 325.68716797 -124.19078125 326.68683594 -124.2890625 327.71679688 C-124.52142838 330.14502036 -124.75937067 332.57258608 -125 335 C-118.13251344 329.22133275 -111.6597333 323.0916914 -105.24658203 316.81640625 C-103.91718413 315.52374641 -102.57892662 314.24013504 -101.23193359 312.96582031 C-90.10209311 302.45578 -90.10209311 302.45578 -86 288 C-85.88978516 287.25153809 -85.77957031 286.50307617 -85.66601562 285.73193359 C-83.36790638 269.01516998 -86.48775972 253.44723505 -96.6875 239.875 C-100.96865719 234.7821736 -105.56494463 230.81072413 -111 227 C-111.95712891 226.30342285 -112.91425781 225.6068457 -113.90039062 224.88916016 C-126.02538398 217.21558799 -137.97948709 218.08041847 -151.9375 218.5 C-154.27793335 218.54020973 -156.61843375 218.57669716 -158.95898438 218.609375 C-164.64080851 218.69669877 -170.32008323 218.82987013 -176 219 Z M-107 219 C-106.2258374 219.61713867 -105.4516748 220.23427734 -104.65405273 220.87011719 C-90.15998419 232.50163719 -79.85305141 245.40198477 -77.59765625 264.38671875 C-76.99241659 271.92319621 -76.87542978 279.44273982 -77 287 C-70.82836116 281.88786998 -65.04432907 276.39768155 -59.32788086 270.7878418 C-58.23236802 269.71906866 -57.12975628 268.65752504 -56.02026367 267.60327148 C-47.20882648 259.35706047 -47.20882648 259.35706047 -44 248 C-43.896875 246.845 -43.79375 245.69 -43.6875 244.5 C-44.40841395 236.42576381 -47.07987036 230.52287812 -53 225 C-53.85525269 224.19671265 -53.85525269 224.19671265 -54.7277832 223.37719727 C-63.6925413 216.62749776 -74.99176692 218.35625353 -85.625 218.625 C-87.69918006 218.65513572 -89.77340227 218.68250515 -91.84765625 218.70703125 C-96.89948786 218.77274387 -101.94927496 218.87606752 -107 219 Z M-46 219 C-44.02 221.97 -42.04 224.94 -40 228 C-37.20081101 233.49840695 -36.03143477 238.96914024 -35 245 C-29.02265091 240.04455862 -23.53812065 234.68810448 -18.0625 229.1875 C-17.18787109 228.31673828 -16.31324219 227.44597656 -15.41210938 226.54882812 C-14.17364258 225.30842773 -14.17364258 225.30842773 -12.91015625 224.04296875 C-11.78299194 222.91411255 -11.78299194 222.91411255 -10.63305664 221.76245117 C-8.88672211 220.27820147 -8.88672211 220.27820147 -9 219 C-21.21 219 -33.42 219 -46 219 Z M13 219 C18.11279092 224.96549134 18.11279092 224.96549134 23.48828125 230.62109375 C24.27654297 231.41064453 25.06480469 232.20019531 25.87695312 233.01367188 C26.68068359 233.81353516 27.48441406 234.61339844 28.3125 235.4375 C29.13556641 236.26443359 29.95863281 237.09136719 30.80664062 237.94335938 C31.58845703 238.72388672 32.37027344 239.50441406 33.17578125 240.30859375 C33.88645752 241.01814209 34.59713379 241.72769043 35.3293457 242.45874023 C36.74366475 244.11301173 36.74366475 244.11301173 38 244 C38.14695312 243.154375 38.29390625 242.30875 38.4453125 241.4375 C39.78533869 234.66035606 41.19054199 229.71780266 45.79296875 224.48828125 C47.20996723 223.06047865 47.20996723 223.06047865 47 221 C47.99 220.67 48.98 220.34 50 220 C50 219.67 50 219.34 50 219 C37.79 219 25.58 219 13 219 Z M57 225 C56.30543701 225.59603027 55.61087402 226.19206055 54.89526367 226.80615234 C50.21818238 230.96923443 47.39228165 235.26503665 46.72265625 241.640625 C46.47197642 248.98053037 47.72196573 254.80079133 52.80322266 260.27319336 C53.91313516 261.38915146 55.03396125 262.494335 56.1640625 263.58984375 C56.7567392 264.17923233 57.34941589 264.76862091 57.96005249 265.37586975 C59.20440041 266.60985511 60.45348029 267.83908541 61.70703125 269.0637207 C63.63502965 270.94729857 65.54903933 272.84423464 67.4609375 274.74414062 C68.67370214 275.94349455 69.88721715 277.14209031 71.1015625 278.33984375 C71.67758209 278.90847641 72.25360168 279.47710907 72.84707642 280.06297302 C75.07018751 282.7622325 75.07018751 282.7622325 78 284 C77.97679687 283.06800781 77.95359375 282.13601563 77.9296875 281.17578125 C77.6476083 261.2489005 81.37352653 246.24073552 95.25 231.3125 C99.25441191 227.45743679 103.9459109 224.57302841 108.62109375 221.6015625 C109.40613281 221.07304687 110.19117188 220.54453125 111 220 C111 219.67 111 219.34 111 219 C104.9169365 218.85073646 98.83495845 218.74235328 92.75048828 218.67041016 C90.68454397 218.64039409 88.61872541 218.59956721 86.55322266 218.54736328 C70.60782384 217.7145452 70.60782384 217.7145452 57 225 Z M112 229 C111.41976074 229.42803421 110.83952148 229.85606842 110.24169922 230.29707336 C98.13950144 239.23856885 88.846232 251.06156874 86.25390625 266.1484375 C85.7213699 272.1292304 86.00940359 278.08490118 87 284 C87.17789062 285.48137451 87.17789062 285.48137451 87.359375 286.99267578 C89.77790348 299.69541386 98.70378631 306.82707079 107.75 315.375 C109.32391627 316.89866766 110.89555353 318.4246932 112.46484375 319.953125 C116.28403318 323.6630228 120.13037106 327.34278161 124 331 C125.3389897 328.32202061 124.7236702 327.07381395 124.0859375 324.16796875 C121.03545929 308.37287039 121.68121956 291.20401383 127 276 C127.350625 274.95199219 127.70125 273.90398437 128.0625 272.82421875 C136.5873713 250.00242786 155.70671072 234.40613944 176.2109375 222.6796875 C177.13132812 222.12539063 178.05171875 221.57109375 179 221 C179 220.67 179 220.34 179 220 C172.0304437 219.76915875 165.06189411 219.61311292 158.08935547 219.50561523 C155.72472305 219.46074158 153.36033467 219.39961705 150.99658203 219.32104492 C135.64577131 218.82407623 124.40761519 219.47287636 112 229 Z M-7.07740784 229.9384613 C-7.9227433 230.78683311 -7.9227433 230.78683311 -8.78515625 231.65234375 C-9.36083847 232.22706924 -9.93652069 232.80179474 -10.52964783 233.39393616 C-11.74894256 234.61254888 -12.9669693 235.8324314 -14.18383789 237.0534668 C-16.05439418 238.929371 -17.93021058 240.79989519 -19.80664062 242.66992188 C-20.98729995 243.85124198 -22.16764905 245.03287224 -23.34765625 246.21484375 C-23.91323746 246.77840073 -24.47881866 247.3419577 -25.0615387 247.92259216 C-27.76325296 250.10164547 -27.76325296 250.10164547 -29 253 C-28.14019531 253.00257813 -27.28039062 253.00515625 -26.39453125 253.0078125 C-25.21246094 253.04648437 -24.03039062 253.08515625 -22.8125 253.125 C-21.66394531 253.14820313 -20.51539063 253.17140625 -19.33203125 253.1953125 C-15 254 -15 254 -2 260 C-2 248.78 -2 237.56 -2 226 C-4.19319499 226 -5.60351407 228.47349409 -7.07740784 229.9384613 Z M6 226 C6 238.87 6 251.74 6 265 C8.97 263.02 11.94 261.04 15 259 C20.96113701 256.0194315 26.47135384 254.22395629 33 253 C27.90160256 246.83626579 22.35339242 241.20402299 16.6875 235.5625 C15.76904297 234.64017578 14.85058594 233.71785156 13.90429688 232.76757812 C13.03224609 231.89681641 12.16019531 231.02605469 11.26171875 230.12890625 C10.46725342 229.33556885 9.67278809 228.54223145 8.85424805 227.72485352 C7.30004467 225.88648368 7.30004467 225.88648368 6 226 Z M-53.25 275.28320312 C-54.62563311 276.75070887 -56.00062563 278.21881534 -57.375 279.6875 C-58.80206912 281.16984292 -60.23173951 282.64968618 -61.6640625 284.12695312 C-65.14005105 287.7231696 -68.57904395 291.3514259 -72 295 C-69.12468404 296.22064658 -69.12468404 296.22064658 -66.5390625 295.578125 C-48.03163183 292.5548361 -29.78862905 294.61871842 -14 305 C-9.38496018 308.86665499 -5.74234064 313.308211 -2 318 C-1.90061844 312.44992205 -1.8282904 306.90036982 -1.78027344 301.34960938 C-1.76024233 299.46410084 -1.73300927 297.57865377 -1.69824219 295.69335938 C-1.64934728 292.97250138 -1.62694618 290.25246944 -1.609375 287.53125 C-1.58872986 286.69758911 -1.56808472 285.86392822 -1.54681396 285.00500488 C-1.54422037 278.13542863 -3.44895234 273.01917805 -7.89453125 267.7578125 C-23.79585721 254.2206348 -40.6689929 262.19300489 -53.25 275.28320312 Z M7.89892578 276.47167969 C5.02645045 280.87197704 5.5017063 285.56243082 5.609375 290.6484375 C5.61503479 291.66096588 5.62069458 292.67349426 5.62652588 293.71670532 C5.64883746 296.93662677 5.69902528 300.1554174 5.75 303.375 C5.77007169 305.56378596 5.78832129 307.75258944 5.8046875 309.94140625 C5.84868495 315.29465378 5.91554482 320.64724608 6 326 C8.85640677 323.7520278 11.38361406 321.7248723 13.5625 318.8125 C24.43351558 305.85625125 41.82890907 297.46758297 58.52246094 295.73876953 C64.01086307 295.31821391 69.49757328 295.11845913 75 295 C69.73030411 288.56444219 63.90702637 282.72088047 58.03100586 276.84570312 C56.3009725 275.11345776 54.57912747 273.37333055 52.85742188 271.6328125 C51.7556973 270.52815794 50.65350071 269.42397391 49.55078125 268.3203125 C49.03824295 267.80058868 48.52570465 267.28086487 47.99763489 266.74539185 C43.90783266 262.68175332 41.11329812 261.82809995 35.4375 261.6875 C23.3775811 261.84733025 15.53353245 267.49041569 7.89892578 276.47167969 Z M-95.33984375 317.94921875 C-96.49027916 319.10814384 -96.49027916 319.10814384 -97.66395569 320.29048157 C-100.09806581 322.74688268 -102.51785393 325.21685831 -104.9375 327.6875 C-106.59086905 329.36094325 -108.2451564 331.03347974 -109.90039062 332.70507812 C-113.94428673 336.79294509 -117.97653119 340.8920313 -122 345 C-118.83762317 346.05412561 -117.95484631 345.97047525 -114.83203125 345.2578125 C-114.02056641 345.07863281 -113.20910156 344.89945312 -112.37304688 344.71484375 C-111.10557617 344.42287109 -111.10557617 344.42287109 -109.8125 344.125 C-83.49177132 338.16636509 -54.99932385 338.56255411 -31.1796875 352.56640625 C-19.51856972 360.23599447 -11.53939161 369.55990435 -4.56640625 381.47265625 C-4.04949219 382.30667969 -3.53257812 383.14070313 -3 384 C-2.67 384 -2.34 384 -2 384 C-1.87537857 377.81110785 -1.78518188 371.62296362 -1.7253418 365.43310547 C-1.7003678 363.33238992 -1.66637634 361.23175973 -1.62280273 359.13134766 C-1.10404807 342.38192617 -1.10404807 342.38192617 -7 327 C-7.64582031 325.90042969 -8.29164063 324.80085938 -8.95703125 323.66796875 C-16.80138058 313.18131228 -24.40210153 306.82971099 -37.296875 303.38671875 C-57.52703182 300.49252001 -80.74128812 302.93749169 -95.33984375 317.94921875 Z M14.16796875 330.25 C13.45253906 331.1575 12.73710937 332.065 12 333 C11.50380661 333.59360825 11.00761322 334.18721649 10.49638367 334.79881287 C5.56239344 341.27387569 5.19219861 346.49973397 5.4140625 354.47265625 C5.42255219 355.6363121 5.43104187 356.79996796 5.43978882 357.99888611 C5.4731709 361.68772965 5.54842891 365.3743257 5.625 369.0625 C5.65511891 371.57483805 5.68249131 374.08721063 5.70703125 376.59960938 C5.77291255 382.73382985 5.87311022 388.86675431 6 395 C9.25828802 391.78223962 12.20138994 388.56148139 15 384.9375 C34.09967773 361.44963185 60.97021747 345.8483805 91.13671875 342.30859375 C101.78306585 341.45817775 112.38363243 341.87402162 123 343 C117.0477291 335.94075017 110.70268773 329.3396398 104.22436523 322.7644043 C102.86459489 321.37790468 101.51203933 319.98429297 100.16674805 318.58374023 C98.20482658 316.54249129 96.2206574 314.52537213 94.23046875 312.51171875 C93.63952927 311.88778732 93.04858978 311.2638559 92.43974304 310.62101746 C85.33431605 303.54862205 76.82817138 303.60660135 67.25 303.625 C45.10660438 303.69509155 28.71916719 314.03821992 14.16796875 330.25 Z " fill="#000000" transform="translate(254,41)"/>
</svg>
